<svg width="180" height="180" viewBox="0 0 180 180" fill="none" xmlns="http://www.w3.org/2000/svg">
  <defs>
    <linearGradient id="remindy-touch-bg" x1="0" y1="0" x2="1" y2="1" gradientUnits="objectBoundingBox">
      <stop offset="0%" stop-color="#fbbf24"/>
      <stop offset="100%" stop-color="#d97706"/>
    </linearGradient>
    <linearGradient id="remindy-touch-sh" x1="0" y1="0" x2="0" y2="1" gradientUnits="objectBoundingBox">
      <stop offset="0%" stop-color="white" stop-opacity="0.22"/>
      <stop offset="100%" stop-color="white" stop-opacity="0"/>
    </linearGradient>
  </defs>
  <rect width="180" height="180" rx="40" fill="url(#remindy-touch-bg)"/>
  <rect width="180" height="100" rx="40" fill="url(#remindy-touch-sh)"/>
  <path d="M90 140C67 118.5 40 102.5 40 75.5C40 57.5 52.5 44 68 44C77.5 44 85.5 49.5 90 57.5C94.5 49.5 102.5 44 112 44C127.5 44 140 57.5 140 75.5C140 102.5 113 118.5 90 140Z" fill="white" opacity="0.34"/>
  <path d="M90 127.5C73 111 52.5 99 52.5 79C52.5 65.5 62 55.5 73.5 55.5C80.5 55.5 86.5 59.5 90 65.5C93.5 59.5 99.5 55.5 106.5 55.5C118 55.5 127.5 65.5 127.5 79C127.5 99 107 111 90 127.5Z" fill="white" opacity="0.95"/>
</svg>
